<?xml version="1.0" encoding="UTF-8"?>
<svg id="Layer_1" xmlns="http://www.w3.org/2000/svg" version="1.1" viewBox="0 0 18 18">
  <!-- Generator: Adobe Illustrator 29.0.1, SVG Export Plug-In . SVG Version: 2.1.0 Build 192)  -->
  <defs>
    <style>
      .st0 {
        fill: #aaa;
      }
    </style>
  </defs>
  <path id="Group_1" class="st0" d="M13.9,13l-2.3-2.3c.6-.7.8-1.6.8-2.5,0-2.3-1.9-4.2-4.2-4.2s-4.2,1.9-4.2,4.2,1.9,4.2,4.2,4.2,1.8-.3,2.5-.8l2.3,2.3c.2.2.6.2.8,0,.2-.2.2-.6,0-.8h0ZM5.2,8.2c0-1.7,1.3-3,3-3s3,1.3,3,3-1.4,3-3,3-3-1.4-3-3h0Z"/>
</svg>