<?xml version="1.0" encoding="UTF-8"?>
<svg id="Layer_1" xmlns="http://www.w3.org/2000/svg" version="1.1" viewBox="0 0 18 18">
  <!-- Generator: Adobe Illustrator 29.0.1, SVG Export Plug-In . SVG Version: 2.1.0 Build 192)  -->
  <defs>
    <style>
      .st0 {
        fill: #aaa;
      }

      .st1 {
        isolation: isolate;
      }
    </style>
  </defs>
  <g class="st1">
    <g class="st1">
      <path class="st0" d="M14,10.4c.1,0,.2.2.1.3-.2.8-.6,1.4-1.2,2,0,.1-.2.1-.3,0l-.9-.5c-.4.3-.8.6-1.3.8v1.1c0,.1,0,.2-.2.3-.8.2-1.6.2-2.3,0,0,0-.2-.1-.2-.3v-1.1c-.5-.2-.9-.4-1.3-.8l-.9.5h-.3c-.5-.6-.9-1.3-1.2-2,0-.1,0-.2,0-.3l.9-.5v-1.6l-.9-.5c0,0-.2-.2,0-.3.2-.8.6-1.4,1.2-2,0,0,.2,0,.3,0l.9.5c.4-.3.8-.6,1.3-.8v-1.1c0,0,0-.2.2-.3.8-.2,1.6-.2,2.4,0,.1,0,.2,0,.2.3v1.1c.5.2.9.4,1.3.8l.9-.5h.3c.5.6.9,1.3,1.2,2,0,0,0,.2-.1.3l-.9.5v1.5l.9.5h0ZM7.8,10.3c.3.3.7.5,1.2.5s.9-.2,1.2-.5.5-.7.5-1.2-.2-.9-.5-1.2-.7-.5-1.2-.5-.9.2-1.2.5-.5.7-.5,1.2.2.9.5,1.2Z"/>
    </g>
  </g>
</svg>