<?xml version="1.0" encoding="UTF-8"?>
<svg id="Layer_1" xmlns="http://www.w3.org/2000/svg" version="1.1" viewBox="0 0 18 18">
  <!-- Generator: Adobe Illustrator 29.0.1, SVG Export Plug-In . SVG Version: 2.1.0 Build 192)  -->
      <path fill="currentColor" d="M8.5,4.9c.1-.2.3-.3.5-.3s.4,0,.5.3l1.2,2.3,2.6.4c.2,0,.4,0,.5.4,0,.2,0,.4-.1.6l-1.9,1.8.4,2.6c0,.2,0,.4-.2.5s-.4.2-.6,0l-2.3-1.2-2.3,1.2c-.2.1-.4.1-.6,0s-.3-.3-.2-.6l.4-2.6-1.9-1.8c-.2-.2-.2-.4,0-.6,0-.2.2-.3.5-.4l2.6-.4,1-2.2h0Z"/>
</svg>