<?xml version="1.0" encoding="UTF-8"?>
<svg id="Layer_1" xmlns="http://www.w3.org/2000/svg" version="1.1" viewBox="0 0 18 18">
  <!-- Generator: Adobe Illustrator 29.0.1, SVG Export Plug-In . SVG Version: 2.1.0 Build 192)  -->
        <path fill="currentColor" d="M12.8,5.3c1,1,1.6,2.3,1.6,3.8s-.5,2.7-1.6,3.8-2.3,1.6-3.8,1.6-2.4-.4-3.4-1.2c0,0-.2-.2-.2-.4s0-.3.2-.4l.2-.2s.2-.1.3-.1h.4c.7.6,1.5.9,2.4.9s2-.4,2.8-1.2,1.2-1.7,1.2-2.8-.4-2-1.2-2.8-1.7-1.2-2.8-1.2-1.9.4-2.7,1.1l1.1,1.1c0,0,0,.2,0,.4,0,0-.2.2-.3.2h-3.3v-3.3c0-.2,0-.3.2-.3h.4l1.1,1.1c1-1,2.3-1.5,3.7-1.5s2.7.5,3.8,1.6v-.2ZM10.4,10.8c0,.1-.2.2-.3.2h-.4l-1.4-1.1v-2.9c0,0,0-.3.2-.4.1,0,.2-.2.4-.2h.3c.1,0,.3,0,.4.2.1,0,.2.2.2.4v2.2l.9.7c.1,0,.2.2.2.3s0,.3-.1.4l-.2.3h-.2Z"/>
</svg>