<?xml version="1.0" encoding="UTF-8"?>
<svg id="Layer_1" xmlns="http://www.w3.org/2000/svg" version="1.1" viewBox="0 0 18 18">
  <!-- Generator: Adobe Illustrator 29.0.1, SVG Export Plug-In . SVG Version: 2.1.0 Build 192)  -->
      <path fill="currentColor" d="M9.5,5.2c.2-.2.3-.2.5-.2s.3.3.3.6v7.1c0,.2-.1.4-.3.5-.2,0-.4,0-.5-.1l-1.9-1.9h-2.2c0,0-.3,0-.4-.1,0,0,0-.2,0-.4v-3c0,0,0-.3,0-.4,0,0,.2,0,.4,0h2.2l1.9-2h0ZM12.1,7.5c.3.2.5.4.7.7.2.3.3.6.3.9s0,.7-.3.9-.4.5-.7.7h-.4c-.2,0-.2-.1-.3-.2v-.4c0-.2.1-.2.2-.3.3-.2.4-.4.4-.7s-.1-.6-.4-.7c-.1,0-.2-.2-.2-.3v-.4c0,0,.2-.2.3-.2s.3,0,.4,0Z"/>
</svg>